<svg xmlns="http://www.w3.org/2000/svg" xmlns:xlink="http://www.w3.org/1999/xlink" viewBox="0 0 340.16 209.67"><defs><style>.cls-1{fill:url(#Новый_образец_градиента_3);}.cls-2{fill:url(#Новый_образец_градиента_3-2);}.cls-3{fill:url(#Новый_образец_градиента_1);}.cls-4{fill:#fff;}</style><linearGradient id="Новый_образец_градиента_3" x1="238.56" y1="38.82" x2="295.28" y2="1.68" gradientUnits="userSpaceOnUse"><stop offset="0.15" stop-color="#f1d0b0"/><stop offset="0.36" stop-color="#ebcdad"/><stop offset="0.63" stop-color="#dbc4a4"/><stop offset="0.94" stop-color="#c1b595"/><stop offset="0.98" stop-color="#bdb393"/></linearGradient><linearGradient id="Новый_образец_градиента_3-2" x1="30.43" y1="191.66" x2="341.02" y2="94.44" xlink:href="#Новый_образец_градиента_3"/><linearGradient id="Новый_образец_градиента_1" y1="106.65" x2="338.92" y2="106.65" gradientUnits="userSpaceOnUse"><stop offset="0" stop-color="#9c2243"/><stop offset="0.09" stop-color="#af2045"/><stop offset="0.2" stop-color="#bf1e46"/><stop offset="0.32" stop-color="#c91d47"/><stop offset="0.49" stop-color="#cc1d47"/><stop offset="0.62" stop-color="#c61e47"/><stop offset="0.79" stop-color="#b61f45"/><stop offset="0.98" stop-color="#9c2243"/><stop offset="0.98" stop-color="#9c2243"/></linearGradient></defs><title>логотип</title><g id="Слой_2" data-name="Слой 2"><g id="design"><path class="cls-1" d="M324.06,9l0-.17s-7.92-21.29-39.67,2.2c-49.76,36.84-79,15.46-79,15.46A83,83,0,0,0,210,42.33C328.6,37.53,324.64,11.33,324.06,9Z"/><path class="cls-2" d="M336.76,49.61c11.77,64-22.26,119-166.11,119-121.91,0-147.28,35.86-147.28,35.86h0c3.12,4.08,4.88,5.2,4.88,5.2s24.57-35.45,146.48-35.45C321.06,174.21,351.65,119.49,336.76,49.61Z"/><path class="cls-3" d="M170.1,43.08C7,43.08,0,118.34,0,145.24c0,32,23.37,59.23,23.37,59.23S48.74,168.6,170.65,168.6C344.51,168.6,358,88.24,324,8.84,324,8.84,336.17,43.08,170.1,43.08Z"/><path class="cls-4" d="M111.26,135.59c11.44-2.14,16.89-17.75,17.24-27.9.37-10.85-5.94-16.28-12.85-15-11,2-16.63,17.47-17.18,28a27.7,27.7,0,0,0,.2,5.29l-.11-.14s-2.42,7.27-5.51,8.45c-1.83.71-3.27-.57-4-2.08-1.4-3.08-2.08-8.63-2.46-11.43a2.13,2.13,0,0,0-3.1-1.89c-.74.25-1.54.51-2.28.73,3.12-4.74,6.69-8.91,9.85-10.9a9,9,0,0,1,3.67-1.15,14.75,14.75,0,0,0,.89-4.28c-.07-1.65-.15-5.2-4.67-3.85-4.91,1.47-13.76,20.91-16.67,27.07,0-.12,0-.24,0-.35.21-2.93,2.5-17.73,3.54-22.28a45.54,45.54,0,0,0-9.15,3.49c.14,1.06-.53,11.07-1.42,19.59a154.63,154.63,0,0,1-4.23,23.58c2.07-1.1,7.48-3,10.14-4a64.38,64.38,0,0,1,.32-10.87,51.61,51.61,0,0,1,5.27-12.17c.61,4.16,1.72,10,2.77,12.68,1.18,3.08,4.27,6,9.26,4.63,5.26-1.48,8.12-6.79,9.36-9.81C102.2,134.76,105.83,136.61,111.26,135.59Zm-3.56-20.4c.82-9,3.81-18.1,8.08-19.12,3.62-.89,4.81,7.67,4,15.56-.62,5.92-4.41,19-8.41,19.86C108.1,132.21,106.9,124.29,107.71,115.18Z"/><path class="cls-4" d="M313.61,94.75a199.07,199.07,0,0,1,6.15-31.67c-4.76.72-7.15,2.07-8.46,4.87a7.82,7.82,0,0,0-7.48-1.22c-8,2.86-13.38,12.2-15.42,25.55-1.52,9.94-.17,20.08,8.36,18.26,4.38-.94,7.32-5.34,9-9.3.61,2.76,2.35,4.21,4.93,4a6.34,6.34,0,0,0,5.13-3.23C314.14,101.37,313.35,97.36,313.61,94.75Zm-7.35-3.67c-1.9,8.08-4.39,12.57-7,13.09-3.89.79-3.83-5.74-2.35-14,1.45-8.08,4.18-16.78,8.14-18.74a5,5,0,0,1,5.14.41C308.93,77.28,307.4,83.55,306.26,91.08Z"/><path class="cls-4" d="M150.74,71.72c11,.61,21.79,2.57,30.91,2.14,15.9-.78,18-11.38,17.61-15.55,0,0-5.58,4-19.78,6.19-9.92,1.55-23.16-.48-40.92.21-21,.81-32.69,8.7-29.34,18.4,3.56-4,11.8-9.27,26.91-11.08a75.37,75.37,0,0,1,9.84-.46c-2.84,3.44-4.84,7.45-6.92,12.82-3.66,9.54-7.84,42.74-9.6,50.76-2.66,12.21-6.33,18.62-12.39,20-7.15,1.61-11.57-8.26-11.59-12.61-5.67.22-6.91,5.37-6.24,8.74s6.27,10,19.06,6.85c12.15-3,17.07-15.74,19.91-26,3.08-11.06,4.66-33,9.37-49.9C148.95,77.22,150,73.82,150.74,71.72Z"/><path class="cls-4" d="M42.06,94.1C33,94.56,26.19,102.21,24,110.9c-.92,3.7,2.3,4.53,4.83,5.33,1-5.83,3.74-18.46,12.74-17.91,6.23.36,11.48,12.1,10.05,30.88-5.76-1.6-10.17-2.61-13.75-1.64-3.83,1-4.2,6.54-3.43,10,5.48-2.82,9.26-3.23,16.78-4.28-2.43,20-10.5,36.43-18.39,36.73-8.64.33-8-14.72-4.57-22-3.5-1.19-8.3-.42-9.9,4.85-2.59,8.48,1.51,21.12,14.22,20.26,13.77-1,25.88-18.42,28.2-46.23S50.75,93.66,42.06,94.1Z"/><path class="cls-4" d="M206.66,84.83c-4.37.18-8.19,4.88-10.33,9.08-.32-4-2.34-8.21-8.21-8-3.44.14-6.5,2.9-8.69,6.09.56-2.14,1.09-4,1.5-5.29a73.61,73.61,0,0,0-9.54.64c-.29,5-1,10.23-3.11,19.82-1.85,8.41-3.19,14.83-5.44,21.29,3.06-.39,7.57-.56,10.11-.71-.13-4.61,1-11.77,3-21,0-.21.1-.49.17-.82,2-7.48,5.69-13,9-13.56,2.32-.41,4,1.91,2.85,7.69s-2.31,12.84-3.79,18.63c-1.61,6.43,1.83,8.74,6.36,7.93,1.14-5.61,3-15.11,4.44-22.81,2.1-6.84,5.58-12,8.68-12.54,2.32-.41,4,1.92,2.85,7.69-1,5.57-2.79,11.47-3.69,17.19-1,6.14,1,9.57,4.93,9.31a6.33,6.33,0,0,0,5.13-3.23c-1.73-.68-2-2.9-1.75-5.51.46-5.7,2.16-11.28,3.57-20.1C215.4,92.2,214.51,84.53,206.66,84.83Z"/><path class="cls-4" d="M166.76,74.66c-7-1.16-9.14,2.53-9.75,7.23-.73,5.76-1.76,13.39-3.78,24.3-1.32,7.17-3.35,16.48-5.35,23.52a86.81,86.81,0,0,1,10.47-1c-.49-4.6,1.14-15.81,2.49-23.57C163.18,91.57,165.72,79.21,166.76,74.66Z"/><path class="cls-4" d="M247.23,118.88c-1.73-.68-2.52-4.68-2.25-7.29.91-9.44,3.88-20.44,6.89-31.6-2.91.27-7,1-9.77,1.39-.26,4.29-.8,8.84-3.58,22.7-2.05,7.36-5.72,13-9,13.58-2.32.41-4-1.92-2.85-7.7,1-5.56,2.8-11.47,3.69-17.18,1-6.14-1-9.57-4.93-9.31a6.3,6.3,0,0,0-5.13,3.22c1.72.67,2,2.9,1.75,5.51-.47,5.7-2.16,11.28-3.57,20.1-.74,4.43.15,12.1,8,11.79,4.43-.17,8.31-5,10.44-9.27-.27,4.86,1.68,7.51,5.15,7.28A6.33,6.33,0,0,0,247.23,118.88Z"/><path class="cls-4" d="M281,110.56c-1.76-1.68-2-4.49-1.21-9.29,1.38-8.13,4.09-18.91,6.9-28.84-3.79,1-7.57,2.15-10.25,2.84-.25,4.47-.68,8-3.77,23.12-2,7.74-5.48,13.41-8.86,14-2.32.41-3.95-1.92-2.85-7.7,1-5.56,3.32-11.49,4.22-17.21,1-6.14-1-9.57-4.93-9.31a6.34,6.34,0,0,0-5.14,3.23c1.73.68,2,2.9,1.76,5.5-.47,5.71-2.69,11.31-4.11,20.13-.73,4.43.16,12.1,8,11.8,4.89-.19,8.77-5.66,10.68-10.12a7.93,7.93,0,0,0,7.47,7.13c4.36-3.83,7.54-1.41,7.46,2-.06,2.66-1.7,5.43-6.64,6.63-6.9,1.65-19.87-1.61-27.58-.41-8.33,1.28-10.56,4-11.58,10.7a46.3,46.3,0,0,1,12.59-2.61c7.84-.73,18.54,1.67,27.39-.16,2.63-.53,10.41-3.91,10.36-14.79C290.89,112.41,286.62,108,281,110.56Z"/></g></g></svg>