<svg width="36" height="36" viewBox="0 0 36 36" fill="none" xmlns="http://www.w3.org/2000/svg">
<path d="M15 25.9456C15 24.2888 16.3431 22.9456 18 22.9456C19.6569 22.9456 21 24.2888 21 25.9456C21 27.6025 19.6569 28.9456 18 28.9456C16.3431 28.9456 15 27.6025 15 25.9456Z" fill="#CCCCCC"/>
<path d="M4.5 16.3819C4.5 15.9593 4.67828 15.5563 4.99099 15.272L15.982 5.28018C17.1262 4.23994 18.8738 4.23994 20.018 5.28018L31.009 15.272C31.3217 15.5563 31.5 15.9593 31.5 16.3819V28.9456C31.5 29.774 30.8284 30.4456 30 30.4456H24V25.9456C24 22.6319 21.3137 19.9456 18 19.9456C14.6863 19.9456 12 22.6319 12 25.9456V30.4456H6C5.17157 30.4456 4.5 29.774 4.5 28.9456V22.6638V16.3819Z" fill="#CCCCCC"/>
<path d="M15 25.9456C15 24.2888 16.3431 22.9456 18 22.9456C19.6569 22.9456 21 24.2888 21 25.9456C21 27.6025 19.6569 28.9456 18 28.9456C16.3431 28.9456 15 27.6025 15 25.9456Z" fill="#CCCCCC"/>
</svg>
